<?xml version="1.0" encoding="UTF-8"?>
<svg width="400px" height="400px" viewBox="0 0 400 400" version="1.1" xmlns="http://www.w3.org/2000/svg" xmlns:xlink="http://www.w3.org/1999/xlink">
    <title>Map-SVG</title>
    <defs>
        <filter id="filter-1">
            <feColorMatrix in="SourceGraphic" type="matrix" values="0 0 0 0 0.000000 0 0 0 0 0.423241 0 0 0 0 1.000000 0 0 0 1.000000 0"></feColorMatrix>
        </filter>
    </defs>
    <g id="Map-SVG" stroke="none" stroke-width="1" fill="none" fill-rule="evenodd">
        <line x1="350" y1="230" x2="370" y2="230" id="Line-2-Copy-10" stroke="#979797" stroke-width="2" stroke-linecap="square"></line>
        <line x1="225" y1="270" x2="250" y2="270" id="Line-2-Copy-8" stroke="#979797" stroke-width="2" stroke-linecap="square"></line>
        <line x1="200" y1="240" x2="225" y2="240" id="Line-2-Copy-3" stroke="#979797" stroke-width="2" stroke-linecap="square"></line>
        <line x1="200" y1="300" x2="225" y2="300" id="Line-2-Copy-9" stroke="#979797" stroke-width="2" stroke-linecap="square"></line>
        <g id="Group-6-Copy-2" transform="translate(89.500000, 100.000000)" stroke="#979797" stroke-linecap="square" stroke-width="2">
            <line x1="50.5" y1="-7.10542736e-14" x2="50.5" y2="20" id="Line-2-Copy"></line>
            <line x1="0.5" y1="-7.10542736e-14" x2="0.5" y2="20" id="Line-2-Copy-2"></line>
            <line x1="100.5" y1="-7.10542736e-14" x2="100.5" y2="20" id="Line-2-Copy-4"></line>
            <line x1="150.5" y1="-7.10542736e-14" x2="150.5" y2="20" id="Line-2-Copy-5"></line>
            <line x1="200.5" y1="-7.10542736e-14" x2="200.5" y2="20" id="Line-2-Copy-6"></line>
            <line x1="250.5" y1="-7.10542736e-14" x2="250.5" y2="20" id="Line-2-Copy-7"></line>
        </g>
        <g id="Group-6-Copy" transform="translate(89.500000, 170.000000)" stroke="#979797" stroke-linecap="square" stroke-width="2">
            <line x1="50.5" y1="-7.10542736e-14" x2="50.5" y2="20" id="Line-2-Copy"></line>
            <line x1="0.5" y1="-7.10542736e-14" x2="0.5" y2="20" id="Line-2-Copy-2"></line>
            <line x1="100.5" y1="-7.10542736e-14" x2="100.5" y2="20" id="Line-2-Copy-4"></line>
            <line x1="200.5" y1="-7.10542736e-14" x2="200.5" y2="20" id="Line-2-Copy-6"></line>
            <line x1="250.5" y1="-7.10542736e-14" x2="250.5" y2="20" id="Line-2-Copy-7"></line>
        </g>
        <g id="Group-6" transform="translate(89.500000, 350.000000)" stroke="#979797" stroke-linecap="square" stroke-width="2">
            <line x1="50.5" y1="-7.10542736e-14" x2="50.5" y2="20" id="Line-2-Copy"></line>
            <line x1="0.5" y1="-7.10542736e-14" x2="0.5" y2="20" id="Line-2-Copy-2"></line>
            <line x1="100.5" y1="-7.10542736e-14" x2="100.5" y2="20" id="Line-2-Copy-4"></line>
            <line x1="200.5" y1="-7.10542736e-14" x2="200.5" y2="20" id="Line-2-Copy-6"></line>
            <line x1="250.5" y1="-7.10542736e-14" x2="250.5" y2="20" id="Line-2-Copy-7"></line>
        </g>
        <g id="Group" transform="translate(29.500000, 49.500000)" fill="#8CCA93" fill-rule="nonzero">
            <path id="Line" d="M316.5,-6.5 L330.5,0.5 L316.5,7.5 L316.5,1.5 L9.5,1.5 L9.5,-0.5 L316.5,-0.5 L316.5,-6.5 Z"></path>
            <path id="Line-Copy" d="M24.5,63.5 L24.5,69.5 L186.5,69.5 L186.5,71.5 L24.5,71.5 L24.5,77.5 L10.5,70.5 L24.5,63.5 Z"></path>
            <path id="Line-Copy-6" d="M24.5,293.5 L24.5,299.5 L186.5,299.5 L186.5,301.5 L24.5,301.5 L24.5,307.5 L10.5,300.5 L24.5,293.5 Z"></path>
            <path id="Line-Copy-3" d="M171.5,133.5 L185.5,140.5 L171.5,147.5 L171.5,141.5 L9.5,141.5 L9.5,139.5 L171.5,139.5 L171.5,133.5 Z"></path>
            <path id="Line-Copy-2" d="M219.5,63.5 L219.5,69.5 L331.5,69.5 L331.5,71.5 L219.5,71.5 L219.5,77.5 L205.5,70.5 L219.5,63.5 Z"></path>
            <path id="Line-Copy-14" d="M219.5,293.5 L219.5,299.5 L331.5,299.5 L331.5,301.5 L219.5,301.5 L219.5,307.5 L205.5,300.5 L219.5,293.5 Z"></path>
            <path id="Line-Copy-4" d="M316.5,133.5 L330.5,140.5 L316.5,147.5 L316.5,141.5 L204.5,141.5 L204.5,139.5 L316.5,139.5 L316.5,133.5 Z"></path>
            <path id="Line-Copy-5" d="M195.5,150.5 L202.5,164.5 L196.5,164.5 L196.5,291.5 L194.5,291.5 L194.5,164.5 L188.5,164.5 L195.5,150.5 Z"></path>
            <path id="Line-Copy-7" d="M341.5,149.5 L341.5,276.5 L347.5,276.5 L340.5,290.5 L333.5,276.5 L339.5,276.5 L339.5,149.5 L341.5,149.5 Z"></path>
            <path id="Line-Copy-10" d="M0.5,150.5 L7.5,164.5 L1.5,164.5 L1.5,291.5 L-0.5,291.5 L-0.5,164.5 L-6.5,164.5 L0.5,150.5 Z"></path>
            <path id="Line-Copy-11" d="M0.5,80.5 L7.5,94.5 L1.5,94.5 L1.5,131.5 L-0.5,131.5 L-0.5,94.5 L-6.5,94.5 L0.5,80.5 Z"></path>
            <path id="Line-Copy-15" d="M0.5,10.5 L7.5,24.5 L1.5,24.5 L1.5,61.5 L-0.5,61.5 L-0.5,24.5 L-6.5,24.5 L0.5,10.5 Z"></path>
            <path id="Line-Copy-12" d="M341.5,79.5 L341.5,116.5 L347.5,116.5 L340.5,130.5 L333.5,116.5 L339.5,116.5 L339.5,79.5 L341.5,79.5 Z"></path>
            <path id="Line-Copy-13" d="M341.5,9.5 L341.5,46.5 L347.5,46.5 L340.5,60.5 L333.5,46.5 L339.5,46.5 L339.5,9.5 L341.5,9.5 Z"></path>
            <path id="Line-Copy-16" d="M195.5,80.5 L202.5,94.5 L196.5,94.5 L196.5,131.5 L194.5,131.5 L194.5,94.5 L188.5,94.5 L195.5,80.5 Z"></path>
        </g>
        <rect id="Rectangle" stroke="#979797" fill="#D8D8D8" x="250.5" y="210.5" width="99" height="119"></rect>
        <rect id="Rectangle-Copy-14" stroke="#979797" fill="#D8D8D8" x="50.5" y="210.5" width="149" height="119"></rect>
        <g id="Group-8" transform="translate(50.000000, 370.000000)" fill="#D8D8D8" stroke="#979797">
            <rect id="Rectangle-Copy-6" transform="translate(25.000000, 15.000000) scale(1, -1) translate(-25.000000, -15.000000) " x="0.5" y="0.5" width="49" height="29"></rect>
            <rect id="Rectangle-Copy-6" transform="translate(225.000000, 15.000000) scale(1, -1) translate(-225.000000, -15.000000) " x="200.5" y="0.5" width="49" height="29"></rect>
            <rect id="Rectangle-Copy-6" transform="translate(125.000000, 15.000000) scale(1, -1) translate(-125.000000, -15.000000) " x="100.5" y="0.5" width="49" height="29"></rect>
            <rect id="Rectangle-Copy-6" transform="translate(75.000000, 15.000000) scale(1, -1) translate(-75.000000, -15.000000) " x="50.5" y="0.5" width="49" height="29"></rect>
            <rect id="Rectangle-Copy-6" transform="translate(275.000000, 15.000000) scale(1, -1) translate(-275.000000, -15.000000) " x="250.5" y="0.5" width="49" height="29"></rect>
        </g>
        <g id="Group-8-Copy" transform="translate(50.000000, 140.000000)" fill="#D8D8D8" stroke="#979797">
            <rect id="Rectangle-Copy-6" transform="translate(25.000000, 15.000000) scale(1, -1) translate(-25.000000, -15.000000) " x="0.5" y="0.5" width="49" height="29"></rect>
            <rect id="Rectangle-Copy-6" transform="translate(225.000000, 15.000000) scale(1, -1) translate(-225.000000, -15.000000) " x="200.5" y="0.5" width="49" height="29"></rect>
            <rect id="Rectangle-Copy-6" transform="translate(125.000000, 15.000000) scale(1, -1) translate(-125.000000, -15.000000) " x="100.5" y="0.5" width="49" height="29"></rect>
            <rect id="Rectangle-Copy-6" transform="translate(75.000000, 15.000000) scale(1, -1) translate(-75.000000, -15.000000) " x="50.5" y="0.5" width="49" height="29"></rect>
            <rect id="Rectangle-Copy-6" transform="translate(275.000000, 15.000000) scale(1, -1) translate(-275.000000, -15.000000) " x="250.5" y="0.5" width="49" height="29"></rect>
        </g>
        <g id="Group-8-Copy-2" transform="translate(50.000000, 70.000000)" fill="#D8D8D8" stroke="#979797">
            <rect id="Rectangle-Copy-6" transform="translate(25.000000, 15.000000) scale(1, -1) translate(-25.000000, -15.000000) " x="0.5" y="0.5" width="49" height="29"></rect>
            <rect id="Rectangle-Copy-6" transform="translate(225.000000, 15.000000) scale(1, -1) translate(-225.000000, -15.000000) " x="200.5" y="0.5" width="49" height="29"></rect>
            <rect id="Rectangle-Copy-6" transform="translate(125.000000, 15.000000) scale(1, -1) translate(-125.000000, -15.000000) " x="100.5" y="0.5" width="49" height="29"></rect>
            <rect id="Rectangle-Copy-6" transform="translate(75.000000, 15.000000) scale(1, -1) translate(-75.000000, -15.000000) " x="50.5" y="0.5" width="49" height="29"></rect>
            <rect id="Rectangle-Copy-6" transform="translate(275.000000, 15.000000) scale(1, -1) translate(-275.000000, -15.000000) " x="250.5" y="0.5" width="49" height="29"></rect>
            <rect id="Rectangle-Copy-6" transform="translate(175.000000, 15.000000) scale(1, -1) translate(-175.000000, -15.000000) " x="150.5" y="0.5" width="49" height="29"></rect>
        </g>
        <g id="Group-8-Copy-3" transform="translate(50.000000, 0.000000)" fill="#D8D8D8" stroke="#979797">
            <rect id="Rectangle-Copy-6" transform="translate(25.000000, 15.000000) scale(1, -1) translate(-25.000000, -15.000000) " x="0.5" y="0.5" width="49" height="29"></rect>
            <rect id="Rectangle-Copy-6" transform="translate(225.000000, 15.000000) scale(1, -1) translate(-225.000000, -15.000000) " x="200.5" y="0.5" width="49" height="29"></rect>
            <rect id="Rectangle-Copy-6" transform="translate(125.000000, 15.000000) scale(1, -1) translate(-125.000000, -15.000000) " x="100.5" y="0.5" width="49" height="29"></rect>
            <rect id="Rectangle-Copy-6" transform="translate(75.000000, 15.000000) scale(1, -1) translate(-75.000000, -15.000000) " x="50.5" y="0.5" width="49" height="29"></rect>
            <rect id="Rectangle-Copy-6" transform="translate(275.000000, 15.000000) scale(1, -1) translate(-275.000000, -15.000000) " x="250.5" y="0.5" width="49" height="29"></rect>
            <rect id="Rectangle-Copy-6" transform="translate(175.000000, 15.000000) scale(1, -1) translate(-175.000000, -15.000000) " x="150.5" y="0.5" width="49" height="29"></rect>
        </g>
        <g id="Group-3" transform="translate(62.000000, 375.000000)" fill="#000000" fill-rule="nonzero">
            <path d="M4.94140625,17 L4.94140625,4.31738281 L3.39453125,4.31738281 L0.01953125,6.74316406 L0.01953125,8.33398438 L3.37695312,5.99609375 L3.41210938,5.99609375 L3.41210938,17 L4.94140625,17 Z M12.5791016,17.2109375 C15.4970703,17.2109375 17.2460938,14.6884766 17.2460938,10.6630859 L17.2460938,10.6455078 C17.2460938,6.62011719 15.4970703,4.10644531 12.5791016,4.10644531 C9.66113281,4.10644531 7.9296875,6.62011719 7.9296875,10.6455078 L7.9296875,10.6630859 C7.9296875,14.6884766 9.66113281,17.2109375 12.5791016,17.2109375 Z M12.5791016,15.8310547 C10.6455078,15.8310547 9.52050781,13.8447266 9.52050781,10.6630859 L9.52050781,10.6455078 C9.52050781,7.46386719 10.6455078,5.49511719 12.5791016,5.49511719 C14.5126953,5.49511719 15.6552734,7.46386719 15.6552734,10.6455078 L15.6552734,10.6630859 C15.6552734,13.8447266 14.5126953,15.8310547 12.5791016,15.8310547 Z M23.6621094,17 L23.6621094,4.31738281 L22.1152344,4.31738281 L18.7402344,6.74316406 L18.7402344,8.33398438 L22.0976562,5.99609375 L22.1328125,5.99609375 L22.1328125,17 L23.6621094,17 Z" id="101"></path>
            <path d="M54.8383789,17 L54.8383789,4.31738281 L53.2915039,4.31738281 L49.9165039,6.74316406 L49.9165039,8.33398438 L53.2739258,5.99609375 L53.309082,5.99609375 L53.309082,17 L54.8383789,17 Z M62.4760742,17.2109375 C65.394043,17.2109375 67.1430664,14.6884766 67.1430664,10.6630859 L67.1430664,10.6455078 C67.1430664,6.62011719 65.394043,4.10644531 62.4760742,4.10644531 C59.5581055,4.10644531 57.8266602,6.62011719 57.8266602,10.6455078 L57.8266602,10.6630859 C57.8266602,14.6884766 59.5581055,17.2109375 62.4760742,17.2109375 Z M62.4760742,15.8310547 C60.5424805,15.8310547 59.4174805,13.8447266 59.4174805,10.6630859 L59.4174805,10.6455078 C59.4174805,7.46386719 60.5424805,5.49511719 62.4760742,5.49511719 C64.409668,5.49511719 65.5522461,7.46386719 65.5522461,10.6455078 L65.5522461,10.6630859 C65.5522461,13.8447266 64.409668,15.8310547 62.4760742,15.8310547 Z M77.1625977,17 L77.1625977,15.59375 L70.9663086,15.59375 L70.9663086,15.5585938 L73.980957,12.4648438 C76.3100586,10.0830078 76.9516602,9.03710938 76.9516602,7.6484375 L76.9516602,7.63085938 C76.9516602,5.64453125 75.2729492,4.10644531 72.9790039,4.10644531 C70.6147461,4.10644531 68.7163086,5.73242188 68.7163086,7.9296875 L68.7163086,7.98242188 L70.2456055,7.98242188 L70.2456055,7.93847656 C70.2456055,6.57617188 71.4233398,5.48632812 73.0053711,5.48632812 C74.3852539,5.48632812 75.3608398,6.41796875 75.3696289,7.70996094 L75.3696289,7.72753906 C75.3696289,8.78222656 74.9741211,9.46777344 73.2602539,11.2519531 L68.7954102,15.9101562 L68.7954102,17 L77.1625977,17 Z" id="102"></path>
            <path d="M104.017578,17 L104.017578,4.31738281 L102.470703,4.31738281 L99.0957031,6.74316406 L99.0957031,8.33398438 L102.453125,5.99609375 L102.488281,5.99609375 L102.488281,17 L104.017578,17 Z M111.655273,17.2109375 C114.573242,17.2109375 116.322266,14.6884766 116.322266,10.6630859 L116.322266,10.6455078 C116.322266,6.62011719 114.573242,4.10644531 111.655273,4.10644531 C108.737305,4.10644531 107.005859,6.62011719 107.005859,10.6455078 L107.005859,10.6630859 C107.005859,14.6884766 108.737305,17.2109375 111.655273,17.2109375 Z M111.655273,15.8310547 C109.72168,15.8310547 108.59668,13.8447266 108.59668,10.6630859 L108.59668,10.6455078 C108.59668,7.46386719 109.72168,5.49511719 111.655273,5.49511719 C113.588867,5.49511719 114.731445,7.46386719 114.731445,10.6455078 L114.731445,10.6630859 C114.731445,13.8447266 113.588867,15.8310547 111.655273,15.8310547 Z M122.421875,17.2109375 C124.961914,17.2109375 126.825195,15.6464844 126.825195,13.5283203 L126.825195,13.5107422 C126.825195,11.7089844 125.568359,10.5576172 123.722656,10.3994141 L123.722656,10.3642578 C125.304688,10.0302734 126.412109,8.95800781 126.412109,7.39355469 L126.412109,7.37597656 C126.412109,5.45117188 124.821289,4.10644531 122.404297,4.10644531 C120.03125,4.10644531 118.396484,5.48632812 118.194336,7.55175781 L118.185547,7.63964844 L119.706055,7.63964844 L119.714844,7.55175781 C119.84668,6.26855469 120.910156,5.47753906 122.404297,5.47753906 C123.951172,5.47753906 124.821289,6.2421875 124.821289,7.56933594 L124.821289,7.58691406 C124.821289,8.85253906 123.766602,9.78417969 122.254883,9.78417969 L120.734375,9.78417969 L120.734375,11.1201172 L122.325195,11.1201172 C124.100586,11.1201172 125.216797,11.9902344 125.216797,13.5458984 L125.216797,13.5634766 C125.216797,14.9082031 124.083008,15.8398438 122.421875,15.8398438 C120.734375,15.8398438 119.591797,14.9785156 119.459961,13.7304688 L119.451172,13.6425781 L117.930664,13.6425781 L117.939453,13.7480469 C118.106445,15.7519531 119.802734,17.2109375 122.421875,17.2109375 Z" id="103"></path>
            <path d="M203.90332,17 L203.90332,4.31738281 L202.356445,4.31738281 L198.981445,6.74316406 L198.981445,8.33398438 L202.338867,5.99609375 L202.374023,5.99609375 L202.374023,17 L203.90332,17 Z M211.541016,17.2109375 C214.458984,17.2109375 216.208008,14.6884766 216.208008,10.6630859 L216.208008,10.6455078 C216.208008,6.62011719 214.458984,4.10644531 211.541016,4.10644531 C208.623047,4.10644531 206.891602,6.62011719 206.891602,10.6455078 L206.891602,10.6630859 C206.891602,14.6884766 208.623047,17.2109375 211.541016,17.2109375 Z M211.541016,15.8310547 C209.607422,15.8310547 208.482422,13.8447266 208.482422,10.6630859 L208.482422,10.6455078 C208.482422,7.46386719 209.607422,5.49511719 211.541016,5.49511719 C213.474609,5.49511719 214.617188,7.46386719 214.617188,10.6455078 L214.617188,10.6630859 C214.617188,13.8447266 213.474609,15.8310547 211.541016,15.8310547 Z M225.594727,17 L225.594727,14.3632812 L227.387695,14.3632812 L227.387695,12.9746094 L225.594727,12.9746094 L225.594727,4.31738281 L223.256836,4.31738281 L217.693359,12.9306641 L217.693359,14.3632812 L224.06543,14.3632812 L224.06543,17 L225.594727,17 Z M224.06543,12.9746094 L219.257812,12.9746094 L219.257812,12.9394531 L224.012695,5.67089844 L224.06543,5.67089844 L224.06543,12.9746094 Z" id="104"></path>
            <path d="M254.579102,17 L254.579102,4.31738281 L253.032227,4.31738281 L249.657227,6.74316406 L249.657227,8.33398438 L253.014648,5.99609375 L253.049805,5.99609375 L253.049805,17 L254.579102,17 Z M262.216797,17.2109375 C265.134766,17.2109375 266.883789,14.6884766 266.883789,10.6630859 L266.883789,10.6455078 C266.883789,6.62011719 265.134766,4.10644531 262.216797,4.10644531 C259.298828,4.10644531 257.567383,6.62011719 257.567383,10.6455078 L257.567383,10.6630859 C257.567383,14.6884766 259.298828,17.2109375 262.216797,17.2109375 Z M262.216797,15.8310547 C260.283203,15.8310547 259.158203,13.8447266 259.158203,10.6630859 L259.158203,10.6455078 C259.158203,7.46386719 260.283203,5.49511719 262.216797,5.49511719 C264.150391,5.49511719 265.292969,7.46386719 265.292969,10.6455078 L265.292969,10.6630859 C265.292969,13.8447266 264.150391,15.8310547 262.216797,15.8310547 Z M273.071289,17.2109375 C275.708008,17.2109375 277.580078,15.4355469 277.588867,12.8955078 L277.588867,12.8779297 C277.588867,10.4433594 275.831055,8.67675781 273.396484,8.67675781 C272.166016,8.67675781 271.111328,9.13378906 270.513672,9.98632812 L270.478516,9.98632812 L270.90918,5.72363281 L276.868164,5.72363281 L276.868164,4.31738281 L269.608398,4.31738281 L268.958008,11.5507812 L270.355469,11.5507812 C270.522461,11.2607422 270.724609,11.0146484 270.953125,10.8037109 C271.515625,10.2939453 272.253906,10.0390625 273.115234,10.0390625 C274.793945,10.0390625 275.998047,11.234375 276.006836,12.9042969 L276.006836,12.921875 C276.006836,14.6269531 274.811523,15.8222656 273.088867,15.8222656 C271.568359,15.8222656 270.443359,14.8642578 270.285156,13.6074219 L270.276367,13.5371094 L268.720703,13.5371094 L268.729492,13.6337891 C268.914062,15.6992188 270.645508,17.2109375 273.071289,17.2109375 Z" id="105"></path>
        </g>
        <g id="Group-3-Copy" transform="translate(60.000000, 144.000000)" fill="#000000" fill-rule="nonzero">
            <path d="M9.44189453,17 L9.44189453,15.59375 L3.24560547,15.59375 L3.24560547,15.5585938 L6.26025391,12.4648438 C8.58935547,10.0830078 9.23095703,9.03710938 9.23095703,7.6484375 L9.23095703,7.63085938 C9.23095703,5.64453125 7.55224609,4.10644531 5.25830078,4.10644531 C2.89404297,4.10644531 0.995605469,5.73242188 0.995605469,7.9296875 L0.995605469,7.98242188 L2.52490234,7.98242188 L2.52490234,7.93847656 C2.52490234,6.57617188 3.70263672,5.48632812 5.28466797,5.48632812 C6.66455078,5.48632812 7.64013672,6.41796875 7.64892578,7.70996094 L7.64892578,7.72753906 C7.64892578,8.78222656 7.25341797,9.46777344 5.53955078,11.2519531 L1.07470703,15.9101562 L1.07470703,17 L9.44189453,17 Z M15.6821289,17.2109375 C18.6000977,17.2109375 20.3491211,14.6884766 20.3491211,10.6630859 L20.3491211,10.6455078 C20.3491211,6.62011719 18.6000977,4.10644531 15.6821289,4.10644531 C12.7641602,4.10644531 11.0327148,6.62011719 11.0327148,10.6455078 L11.0327148,10.6630859 C11.0327148,14.6884766 12.7641602,17.2109375 15.6821289,17.2109375 Z M15.6821289,15.8310547 C13.7485352,15.8310547 12.6235352,13.8447266 12.6235352,10.6630859 L12.6235352,10.6455078 C12.6235352,7.46386719 13.7485352,5.49511719 15.6821289,5.49511719 C17.6157227,5.49511719 18.7583008,7.46386719 18.7583008,10.6455078 L18.7583008,10.6630859 C18.7583008,13.8447266 17.6157227,15.8310547 15.6821289,15.8310547 Z M26.7651367,17 L26.7651367,4.31738281 L25.2182617,4.31738281 L21.8432617,6.74316406 L21.8432617,8.33398438 L25.2006836,5.99609375 L25.2358398,5.99609375 L25.2358398,17 L26.7651367,17 Z" id="201"></path>
            <path d="M59.3388672,17 L59.3388672,15.59375 L53.1425781,15.59375 L53.1425781,15.5585938 L56.1572266,12.4648438 C58.4863281,10.0830078 59.1279297,9.03710938 59.1279297,7.6484375 L59.1279297,7.63085938 C59.1279297,5.64453125 57.4492188,4.10644531 55.1552734,4.10644531 C52.7910156,4.10644531 50.8925781,5.73242188 50.8925781,7.9296875 L50.8925781,7.98242188 L52.421875,7.98242188 L52.421875,7.93847656 C52.421875,6.57617188 53.5996094,5.48632812 55.1816406,5.48632812 C56.5615234,5.48632812 57.5371094,6.41796875 57.5458984,7.70996094 L57.5458984,7.72753906 C57.5458984,8.78222656 57.1503906,9.46777344 55.4365234,11.2519531 L50.9716797,15.9101562 L50.9716797,17 L59.3388672,17 Z M65.5791016,17.2109375 C68.4970703,17.2109375 70.2460938,14.6884766 70.2460938,10.6630859 L70.2460938,10.6455078 C70.2460938,6.62011719 68.4970703,4.10644531 65.5791016,4.10644531 C62.6611328,4.10644531 60.9296875,6.62011719 60.9296875,10.6455078 L60.9296875,10.6630859 C60.9296875,14.6884766 62.6611328,17.2109375 65.5791016,17.2109375 Z M65.5791016,15.8310547 C63.6455078,15.8310547 62.5205078,13.8447266 62.5205078,10.6630859 L62.5205078,10.6455078 C62.5205078,7.46386719 63.6455078,5.49511719 65.5791016,5.49511719 C67.5126953,5.49511719 68.6552734,7.46386719 68.6552734,10.6455078 L68.6552734,10.6630859 C68.6552734,13.8447266 67.5126953,15.8310547 65.5791016,15.8310547 Z M80.265625,17 L80.265625,15.59375 L74.0693359,15.59375 L74.0693359,15.5585938 L77.0839844,12.4648438 C79.4130859,10.0830078 80.0546875,9.03710938 80.0546875,7.6484375 L80.0546875,7.63085938 C80.0546875,5.64453125 78.3759766,4.10644531 76.0820312,4.10644531 C73.7177734,4.10644531 71.8193359,5.73242188 71.8193359,7.9296875 L71.8193359,7.98242188 L73.3486328,7.98242188 L73.3486328,7.93847656 C73.3486328,6.57617188 74.5263672,5.48632812 76.1083984,5.48632812 C77.4882812,5.48632812 78.4638672,6.41796875 78.4726562,7.70996094 L78.4726562,7.72753906 C78.4726562,8.78222656 78.0771484,9.46777344 76.3632812,11.2519531 L71.8984375,15.9101562 L71.8984375,17 L80.265625,17 Z" id="202"></path>
            <path d="M108.518066,17 L108.518066,15.59375 L102.321777,15.59375 L102.321777,15.5585938 L105.336426,12.4648438 C107.665527,10.0830078 108.307129,9.03710938 108.307129,7.6484375 L108.307129,7.63085938 C108.307129,5.64453125 106.628418,4.10644531 104.334473,4.10644531 C101.970215,4.10644531 100.071777,5.73242188 100.071777,7.9296875 L100.071777,7.98242188 L101.601074,7.98242188 L101.601074,7.93847656 C101.601074,6.57617188 102.778809,5.48632812 104.36084,5.48632812 C105.740723,5.48632812 106.716309,6.41796875 106.725098,7.70996094 L106.725098,7.72753906 C106.725098,8.78222656 106.32959,9.46777344 104.615723,11.2519531 L100.150879,15.9101562 L100.150879,17 L108.518066,17 Z M114.758301,17.2109375 C117.67627,17.2109375 119.425293,14.6884766 119.425293,10.6630859 L119.425293,10.6455078 C119.425293,6.62011719 117.67627,4.10644531 114.758301,4.10644531 C111.840332,4.10644531 110.108887,6.62011719 110.108887,10.6455078 L110.108887,10.6630859 C110.108887,14.6884766 111.840332,17.2109375 114.758301,17.2109375 Z M114.758301,15.8310547 C112.824707,15.8310547 111.699707,13.8447266 111.699707,10.6630859 L111.699707,10.6455078 C111.699707,7.46386719 112.824707,5.49511719 114.758301,5.49511719 C116.691895,5.49511719 117.834473,7.46386719 117.834473,10.6455078 L117.834473,10.6630859 C117.834473,13.8447266 116.691895,15.8310547 114.758301,15.8310547 Z M125.524902,17.2109375 C128.064941,17.2109375 129.928223,15.6464844 129.928223,13.5283203 L129.928223,13.5107422 C129.928223,11.7089844 128.671387,10.5576172 126.825684,10.3994141 L126.825684,10.3642578 C128.407715,10.0302734 129.515137,8.95800781 129.515137,7.39355469 L129.515137,7.37597656 C129.515137,5.45117188 127.924316,4.10644531 125.507324,4.10644531 C123.134277,4.10644531 121.499512,5.48632812 121.297363,7.55175781 L121.288574,7.63964844 L122.809082,7.63964844 L122.817871,7.55175781 C122.949707,6.26855469 124.013184,5.47753906 125.507324,5.47753906 C127.054199,5.47753906 127.924316,6.2421875 127.924316,7.56933594 L127.924316,7.58691406 C127.924316,8.85253906 126.869629,9.78417969 125.35791,9.78417969 L123.837402,9.78417969 L123.837402,11.1201172 L125.428223,11.1201172 C127.203613,11.1201172 128.319824,11.9902344 128.319824,13.5458984 L128.319824,13.5634766 C128.319824,14.9082031 127.186035,15.8398438 125.524902,15.8398438 C123.837402,15.8398438 122.694824,14.9785156 122.562988,13.7304688 L122.554199,13.6425781 L121.033691,13.6425781 L121.04248,13.7480469 C121.209473,15.7519531 122.905762,17.2109375 125.524902,17.2109375 Z" id="203"></path>
            <path d="M208.403809,17 L208.403809,15.59375 L202.20752,15.59375 L202.20752,15.5585938 L205.222168,12.4648438 C207.55127,10.0830078 208.192871,9.03710938 208.192871,7.6484375 L208.192871,7.63085938 C208.192871,5.64453125 206.51416,4.10644531 204.220215,4.10644531 C201.855957,4.10644531 199.95752,5.73242188 199.95752,7.9296875 L199.95752,7.98242188 L201.486816,7.98242188 L201.486816,7.93847656 C201.486816,6.57617188 202.664551,5.48632812 204.246582,5.48632812 C205.626465,5.48632812 206.602051,6.41796875 206.61084,7.70996094 L206.61084,7.72753906 C206.61084,8.78222656 206.215332,9.46777344 204.501465,11.2519531 L200.036621,15.9101562 L200.036621,17 L208.403809,17 Z M214.644043,17.2109375 C217.562012,17.2109375 219.311035,14.6884766 219.311035,10.6630859 L219.311035,10.6455078 C219.311035,6.62011719 217.562012,4.10644531 214.644043,4.10644531 C211.726074,4.10644531 209.994629,6.62011719 209.994629,10.6455078 L209.994629,10.6630859 C209.994629,14.6884766 211.726074,17.2109375 214.644043,17.2109375 Z M214.644043,15.8310547 C212.710449,15.8310547 211.585449,13.8447266 211.585449,10.6630859 L211.585449,10.6455078 C211.585449,7.46386719 212.710449,5.49511719 214.644043,5.49511719 C216.577637,5.49511719 217.720215,7.46386719 217.720215,10.6455078 L217.720215,10.6630859 C217.720215,13.8447266 216.577637,15.8310547 214.644043,15.8310547 Z M228.697754,17 L228.697754,14.3632812 L230.490723,14.3632812 L230.490723,12.9746094 L228.697754,12.9746094 L228.697754,4.31738281 L226.359863,4.31738281 L220.796387,12.9306641 L220.796387,14.3632812 L227.168457,14.3632812 L227.168457,17 L228.697754,17 Z M227.168457,12.9746094 L222.36084,12.9746094 L222.36084,12.9394531 L227.115723,5.67089844 L227.168457,5.67089844 L227.168457,12.9746094 Z" id="204"></path>
            <path d="M259.07959,17 L259.07959,15.59375 L252.883301,15.59375 L252.883301,15.5585938 L255.897949,12.4648438 C258.227051,10.0830078 258.868652,9.03710938 258.868652,7.6484375 L258.868652,7.63085938 C258.868652,5.64453125 257.189941,4.10644531 254.895996,4.10644531 C252.531738,4.10644531 250.633301,5.73242188 250.633301,7.9296875 L250.633301,7.98242188 L252.162598,7.98242188 L252.162598,7.93847656 C252.162598,6.57617188 253.340332,5.48632812 254.922363,5.48632812 C256.302246,5.48632812 257.277832,6.41796875 257.286621,7.70996094 L257.286621,7.72753906 C257.286621,8.78222656 256.891113,9.46777344 255.177246,11.2519531 L250.712402,15.9101562 L250.712402,17 L259.07959,17 Z M265.319824,17.2109375 C268.237793,17.2109375 269.986816,14.6884766 269.986816,10.6630859 L269.986816,10.6455078 C269.986816,6.62011719 268.237793,4.10644531 265.319824,4.10644531 C262.401855,4.10644531 260.67041,6.62011719 260.67041,10.6455078 L260.67041,10.6630859 C260.67041,14.6884766 262.401855,17.2109375 265.319824,17.2109375 Z M265.319824,15.8310547 C263.38623,15.8310547 262.26123,13.8447266 262.26123,10.6630859 L262.26123,10.6455078 C262.26123,7.46386719 263.38623,5.49511719 265.319824,5.49511719 C267.253418,5.49511719 268.395996,7.46386719 268.395996,10.6455078 L268.395996,10.6630859 C268.395996,13.8447266 267.253418,15.8310547 265.319824,15.8310547 Z M276.174316,17.2109375 C278.811035,17.2109375 280.683105,15.4355469 280.691895,12.8955078 L280.691895,12.8779297 C280.691895,10.4433594 278.934082,8.67675781 276.499512,8.67675781 C275.269043,8.67675781 274.214355,9.13378906 273.616699,9.98632812 L273.581543,9.98632812 L274.012207,5.72363281 L279.971191,5.72363281 L279.971191,4.31738281 L272.711426,4.31738281 L272.061035,11.5507812 L273.458496,11.5507812 C273.625488,11.2607422 273.827637,11.0146484 274.056152,10.8037109 C274.618652,10.2939453 275.356934,10.0390625 276.218262,10.0390625 C277.896973,10.0390625 279.101074,11.234375 279.109863,12.9042969 L279.109863,12.921875 C279.109863,14.6269531 277.914551,15.8222656 276.191895,15.8222656 C274.671387,15.8222656 273.546387,14.8642578 273.388184,13.6074219 L273.379395,13.5371094 L271.82373,13.5371094 L271.83252,13.6337891 C272.01709,15.6992188 273.748535,17.2109375 276.174316,17.2109375 Z" id="205"></path>
        </g>
        <g id="Group-3-Copy-2" transform="translate(59.000000, 74.000000)" fill="#000000" fill-rule="nonzero">
            <path d="M6.11328125,17.2109375 C8.65332031,17.2109375 10.5166016,15.6464844 10.5166016,13.5283203 L10.5166016,13.5107422 C10.5166016,11.7089844 9.25976562,10.5576172 7.4140625,10.3994141 L7.4140625,10.3642578 C8.99609375,10.0302734 10.1035156,8.95800781 10.1035156,7.39355469 L10.1035156,7.37597656 C10.1035156,5.45117188 8.51269531,4.10644531 6.09570312,4.10644531 C3.72265625,4.10644531 2.08789062,5.48632812 1.88574219,7.55175781 L1.87695312,7.63964844 L3.39746094,7.63964844 L3.40625,7.55175781 C3.53808594,6.26855469 4.6015625,5.47753906 6.09570312,5.47753906 C7.64257812,5.47753906 8.51269531,6.2421875 8.51269531,7.56933594 L8.51269531,7.58691406 C8.51269531,8.85253906 7.45800781,9.78417969 5.94628906,9.78417969 L4.42578125,9.78417969 L4.42578125,11.1201172 L6.01660156,11.1201172 C7.79199219,11.1201172 8.90820312,11.9902344 8.90820312,13.5458984 L8.90820312,13.5634766 C8.90820312,14.9082031 7.77441406,15.8398438 6.11328125,15.8398438 C4.42578125,15.8398438 3.28320312,14.9785156 3.15136719,13.7304688 L3.14257812,13.6425781 L1.62207031,13.6425781 L1.63085938,13.7480469 C1.79785156,15.7519531 3.49414062,17.2109375 6.11328125,17.2109375 Z M16.9150391,17.2109375 C19.8330078,17.2109375 21.5820312,14.6884766 21.5820312,10.6630859 L21.5820312,10.6455078 C21.5820312,6.62011719 19.8330078,4.10644531 16.9150391,4.10644531 C13.9970703,4.10644531 12.265625,6.62011719 12.265625,10.6455078 L12.265625,10.6630859 C12.265625,14.6884766 13.9970703,17.2109375 16.9150391,17.2109375 Z M16.9150391,15.8310547 C14.9814453,15.8310547 13.8564453,13.8447266 13.8564453,10.6630859 L13.8564453,10.6455078 C13.8564453,7.46386719 14.9814453,5.49511719 16.9150391,5.49511719 C18.8486328,5.49511719 19.9912109,7.46386719 19.9912109,10.6455078 L19.9912109,10.6630859 C19.9912109,13.8447266 18.8486328,15.8310547 16.9150391,15.8310547 Z M27.9980469,17 L27.9980469,4.31738281 L26.4511719,4.31738281 L23.0761719,6.74316406 L23.0761719,8.33398438 L26.4335938,5.99609375 L26.46875,5.99609375 L26.46875,17 L27.9980469,17 Z" id="301"></path>
            <path d="M56.0102539,17.2109375 C58.550293,17.2109375 60.4135742,15.6464844 60.4135742,13.5283203 L60.4135742,13.5107422 C60.4135742,11.7089844 59.1567383,10.5576172 57.3110352,10.3994141 L57.3110352,10.3642578 C58.8930664,10.0302734 60.0004883,8.95800781 60.0004883,7.39355469 L60.0004883,7.37597656 C60.0004883,5.45117188 58.409668,4.10644531 55.9926758,4.10644531 C53.6196289,4.10644531 51.9848633,5.48632812 51.7827148,7.55175781 L51.7739258,7.63964844 L53.2944336,7.63964844 L53.3032227,7.55175781 C53.4350586,6.26855469 54.4985352,5.47753906 55.9926758,5.47753906 C57.5395508,5.47753906 58.409668,6.2421875 58.409668,7.56933594 L58.409668,7.58691406 C58.409668,8.85253906 57.3549805,9.78417969 55.8432617,9.78417969 L54.3227539,9.78417969 L54.3227539,11.1201172 L55.9135742,11.1201172 C57.6889648,11.1201172 58.8051758,11.9902344 58.8051758,13.5458984 L58.8051758,13.5634766 C58.8051758,14.9082031 57.6713867,15.8398438 56.0102539,15.8398438 C54.3227539,15.8398438 53.1801758,14.9785156 53.0483398,13.7304688 L53.0395508,13.6425781 L51.519043,13.6425781 L51.527832,13.7480469 C51.6948242,15.7519531 53.3911133,17.2109375 56.0102539,17.2109375 Z M66.8120117,17.2109375 C69.7299805,17.2109375 71.4790039,14.6884766 71.4790039,10.6630859 L71.4790039,10.6455078 C71.4790039,6.62011719 69.7299805,4.10644531 66.8120117,4.10644531 C63.894043,4.10644531 62.1625977,6.62011719 62.1625977,10.6455078 L62.1625977,10.6630859 C62.1625977,14.6884766 63.894043,17.2109375 66.8120117,17.2109375 Z M66.8120117,15.8310547 C64.878418,15.8310547 63.753418,13.8447266 63.753418,10.6630859 L63.753418,10.6455078 C63.753418,7.46386719 64.878418,5.49511719 66.8120117,5.49511719 C68.7456055,5.49511719 69.8881836,7.46386719 69.8881836,10.6455078 L69.8881836,10.6630859 C69.8881836,13.8447266 68.7456055,15.8310547 66.8120117,15.8310547 Z M81.4985352,17 L81.4985352,15.59375 L75.3022461,15.59375 L75.3022461,15.5585938 L78.3168945,12.4648438 C80.6459961,10.0830078 81.2875977,9.03710938 81.2875977,7.6484375 L81.2875977,7.63085938 C81.2875977,5.64453125 79.6088867,4.10644531 77.3149414,4.10644531 C74.9506836,4.10644531 73.0522461,5.73242188 73.0522461,7.9296875 L73.0522461,7.98242188 L74.581543,7.98242188 L74.581543,7.93847656 C74.581543,6.57617188 75.7592773,5.48632812 77.3413086,5.48632812 C78.7211914,5.48632812 79.6967773,6.41796875 79.7055664,7.70996094 L79.7055664,7.72753906 C79.7055664,8.78222656 79.3100586,9.46777344 77.5961914,11.2519531 L73.1313477,15.9101562 L73.1313477,17 L81.4985352,17 Z" id="302"></path>
            <path d="M105.189453,17.2109375 C107.729492,17.2109375 109.592773,15.6464844 109.592773,13.5283203 L109.592773,13.5107422 C109.592773,11.7089844 108.335938,10.5576172 106.490234,10.3994141 L106.490234,10.3642578 C108.072266,10.0302734 109.179688,8.95800781 109.179688,7.39355469 L109.179688,7.37597656 C109.179688,5.45117188 107.588867,4.10644531 105.171875,4.10644531 C102.798828,4.10644531 101.164062,5.48632812 100.961914,7.55175781 L100.953125,7.63964844 L102.473633,7.63964844 L102.482422,7.55175781 C102.614258,6.26855469 103.677734,5.47753906 105.171875,5.47753906 C106.71875,5.47753906 107.588867,6.2421875 107.588867,7.56933594 L107.588867,7.58691406 C107.588867,8.85253906 106.53418,9.78417969 105.022461,9.78417969 L103.501953,9.78417969 L103.501953,11.1201172 L105.092773,11.1201172 C106.868164,11.1201172 107.984375,11.9902344 107.984375,13.5458984 L107.984375,13.5634766 C107.984375,14.9082031 106.850586,15.8398438 105.189453,15.8398438 C103.501953,15.8398438 102.359375,14.9785156 102.227539,13.7304688 L102.21875,13.6425781 L100.698242,13.6425781 L100.707031,13.7480469 C100.874023,15.7519531 102.570312,17.2109375 105.189453,17.2109375 Z M115.991211,17.2109375 C118.90918,17.2109375 120.658203,14.6884766 120.658203,10.6630859 L120.658203,10.6455078 C120.658203,6.62011719 118.90918,4.10644531 115.991211,4.10644531 C113.073242,4.10644531 111.341797,6.62011719 111.341797,10.6455078 L111.341797,10.6630859 C111.341797,14.6884766 113.073242,17.2109375 115.991211,17.2109375 Z M115.991211,15.8310547 C114.057617,15.8310547 112.932617,13.8447266 112.932617,10.6630859 L112.932617,10.6455078 C112.932617,7.46386719 114.057617,5.49511719 115.991211,5.49511719 C117.924805,5.49511719 119.067383,7.46386719 119.067383,10.6455078 L119.067383,10.6630859 C119.067383,13.8447266 117.924805,15.8310547 115.991211,15.8310547 Z M126.757812,17.2109375 C129.297852,17.2109375 131.161133,15.6464844 131.161133,13.5283203 L131.161133,13.5107422 C131.161133,11.7089844 129.904297,10.5576172 128.058594,10.3994141 L128.058594,10.3642578 C129.640625,10.0302734 130.748047,8.95800781 130.748047,7.39355469 L130.748047,7.37597656 C130.748047,5.45117188 129.157227,4.10644531 126.740234,4.10644531 C124.367188,4.10644531 122.732422,5.48632812 122.530273,7.55175781 L122.521484,7.63964844 L124.041992,7.63964844 L124.050781,7.55175781 C124.182617,6.26855469 125.246094,5.47753906 126.740234,5.47753906 C128.287109,5.47753906 129.157227,6.2421875 129.157227,7.56933594 L129.157227,7.58691406 C129.157227,8.85253906 128.102539,9.78417969 126.59082,9.78417969 L125.070312,9.78417969 L125.070312,11.1201172 L126.661133,11.1201172 C128.436523,11.1201172 129.552734,11.9902344 129.552734,13.5458984 L129.552734,13.5634766 C129.552734,14.9082031 128.418945,15.8398438 126.757812,15.8398438 C125.070312,15.8398438 123.927734,14.9785156 123.795898,13.7304688 L123.787109,13.6425781 L122.266602,13.6425781 L122.275391,13.7480469 C122.442383,15.7519531 124.138672,17.2109375 126.757812,17.2109375 Z" id="303"></path>
            <path d="M205.250977,17.2109375 C207.791016,17.2109375 209.654297,15.6464844 209.654297,13.5283203 L209.654297,13.5107422 C209.654297,11.7089844 208.397461,10.5576172 206.551758,10.3994141 L206.551758,10.3642578 C208.133789,10.0302734 209.241211,8.95800781 209.241211,7.39355469 L209.241211,7.37597656 C209.241211,5.45117188 207.650391,4.10644531 205.233398,4.10644531 C202.860352,4.10644531 201.225586,5.48632812 201.023438,7.55175781 L201.014648,7.63964844 L202.535156,7.63964844 L202.543945,7.55175781 C202.675781,6.26855469 203.739258,5.47753906 205.233398,5.47753906 C206.780273,5.47753906 207.650391,6.2421875 207.650391,7.56933594 L207.650391,7.58691406 C207.650391,8.85253906 206.595703,9.78417969 205.083984,9.78417969 L203.563477,9.78417969 L203.563477,11.1201172 L205.154297,11.1201172 C206.929688,11.1201172 208.045898,11.9902344 208.045898,13.5458984 L208.045898,13.5634766 C208.045898,14.9082031 206.912109,15.8398438 205.250977,15.8398438 C203.563477,15.8398438 202.420898,14.9785156 202.289062,13.7304688 L202.280273,13.6425781 L200.759766,13.6425781 L200.768555,13.7480469 C200.935547,15.7519531 202.631836,17.2109375 205.250977,17.2109375 Z M216.052734,17.2109375 C218.970703,17.2109375 220.719727,14.6884766 220.719727,10.6630859 L220.719727,10.6455078 C220.719727,6.62011719 218.970703,4.10644531 216.052734,4.10644531 C213.134766,4.10644531 211.40332,6.62011719 211.40332,10.6455078 L211.40332,10.6630859 C211.40332,14.6884766 213.134766,17.2109375 216.052734,17.2109375 Z M216.052734,15.8310547 C214.119141,15.8310547 212.994141,13.8447266 212.994141,10.6630859 L212.994141,10.6455078 C212.994141,7.46386719 214.119141,5.49511719 216.052734,5.49511719 C217.986328,5.49511719 219.128906,7.46386719 219.128906,10.6455078 L219.128906,10.6630859 C219.128906,13.8447266 217.986328,15.8310547 216.052734,15.8310547 Z M226.907227,17.2109375 C229.543945,17.2109375 231.416016,15.4355469 231.424805,12.8955078 L231.424805,12.8779297 C231.424805,10.4433594 229.666992,8.67675781 227.232422,8.67675781 C226.001953,8.67675781 224.947266,9.13378906 224.349609,9.98632812 L224.314453,9.98632812 L224.745117,5.72363281 L230.704102,5.72363281 L230.704102,4.31738281 L223.444336,4.31738281 L222.793945,11.5507812 L224.191406,11.5507812 C224.358398,11.2607422 224.560547,11.0146484 224.789062,10.8037109 C225.351562,10.2939453 226.089844,10.0390625 226.951172,10.0390625 C228.629883,10.0390625 229.833984,11.234375 229.842773,12.9042969 L229.842773,12.921875 C229.842773,14.6269531 228.647461,15.8222656 226.924805,15.8222656 C225.404297,15.8222656 224.279297,14.8642578 224.121094,13.6074219 L224.112305,13.5371094 L222.556641,13.5371094 L222.56543,13.6337891 C222.75,15.6992188 224.481445,17.2109375 226.907227,17.2109375 Z" id="305"></path>
            <path d="M155.575195,17.2109375 C158.115234,17.2109375 159.978516,15.6464844 159.978516,13.5283203 L159.978516,13.5107422 C159.978516,11.7089844 158.72168,10.5576172 156.875977,10.3994141 L156.875977,10.3642578 C158.458008,10.0302734 159.56543,8.95800781 159.56543,7.39355469 L159.56543,7.37597656 C159.56543,5.45117188 157.974609,4.10644531 155.557617,4.10644531 C153.18457,4.10644531 151.549805,5.48632812 151.347656,7.55175781 L151.338867,7.63964844 L152.859375,7.63964844 L152.868164,7.55175781 C153,6.26855469 154.063477,5.47753906 155.557617,5.47753906 C157.104492,5.47753906 157.974609,6.2421875 157.974609,7.56933594 L157.974609,7.58691406 C157.974609,8.85253906 156.919922,9.78417969 155.408203,9.78417969 L153.887695,9.78417969 L153.887695,11.1201172 L155.478516,11.1201172 C157.253906,11.1201172 158.370117,11.9902344 158.370117,13.5458984 L158.370117,13.5634766 C158.370117,14.9082031 157.236328,15.8398438 155.575195,15.8398438 C153.887695,15.8398438 152.745117,14.9785156 152.613281,13.7304688 L152.604492,13.6425781 L151.083984,13.6425781 L151.092773,13.7480469 C151.259766,15.7519531 152.956055,17.2109375 155.575195,17.2109375 Z M166.376953,17.2109375 C169.294922,17.2109375 171.043945,14.6884766 171.043945,10.6630859 L171.043945,10.6455078 C171.043945,6.62011719 169.294922,4.10644531 166.376953,4.10644531 C163.458984,4.10644531 161.727539,6.62011719 161.727539,10.6455078 L161.727539,10.6630859 C161.727539,14.6884766 163.458984,17.2109375 166.376953,17.2109375 Z M166.376953,15.8310547 C164.443359,15.8310547 163.318359,13.8447266 163.318359,10.6630859 L163.318359,10.6455078 C163.318359,7.46386719 164.443359,5.49511719 166.376953,5.49511719 C168.310547,5.49511719 169.453125,7.46386719 169.453125,10.6455078 L169.453125,10.6630859 C169.453125,13.8447266 168.310547,15.8310547 166.376953,15.8310547 Z M180.430664,17 L180.430664,14.3632812 L182.223633,14.3632812 L182.223633,12.9746094 L180.430664,12.9746094 L180.430664,4.31738281 L178.092773,4.31738281 L172.529297,12.9306641 L172.529297,14.3632812 L178.901367,14.3632812 L178.901367,17 L180.430664,17 Z M178.901367,12.9746094 L174.09375,12.9746094 L174.09375,12.9394531 L178.848633,5.67089844 L178.901367,5.67089844 L178.901367,12.9746094 Z" id="304"></path>
            <path d="M255.460938,17.2109375 C258.000977,17.2109375 259.864258,15.6464844 259.864258,13.5283203 L259.864258,13.5107422 C259.864258,11.7089844 258.607422,10.5576172 256.761719,10.3994141 L256.761719,10.3642578 C258.34375,10.0302734 259.451172,8.95800781 259.451172,7.39355469 L259.451172,7.37597656 C259.451172,5.45117188 257.860352,4.10644531 255.443359,4.10644531 C253.070312,4.10644531 251.435547,5.48632812 251.233398,7.55175781 L251.224609,7.63964844 L252.745117,7.63964844 L252.753906,7.55175781 C252.885742,6.26855469 253.949219,5.47753906 255.443359,5.47753906 C256.990234,5.47753906 257.860352,6.2421875 257.860352,7.56933594 L257.860352,7.58691406 C257.860352,8.85253906 256.805664,9.78417969 255.293945,9.78417969 L253.773438,9.78417969 L253.773438,11.1201172 L255.364258,11.1201172 C257.139648,11.1201172 258.255859,11.9902344 258.255859,13.5458984 L258.255859,13.5634766 C258.255859,14.9082031 257.12207,15.8398438 255.460938,15.8398438 C253.773438,15.8398438 252.630859,14.9785156 252.499023,13.7304688 L252.490234,13.6425781 L250.969727,13.6425781 L250.978516,13.7480469 C251.145508,15.7519531 252.841797,17.2109375 255.460938,17.2109375 Z M266.262695,17.2109375 C269.180664,17.2109375 270.929688,14.6884766 270.929688,10.6630859 L270.929688,10.6455078 C270.929688,6.62011719 269.180664,4.10644531 266.262695,4.10644531 C263.344727,4.10644531 261.613281,6.62011719 261.613281,10.6455078 L261.613281,10.6630859 C261.613281,14.6884766 263.344727,17.2109375 266.262695,17.2109375 Z M266.262695,15.8310547 C264.329102,15.8310547 263.204102,13.8447266 263.204102,10.6630859 L263.204102,10.6455078 C263.204102,7.46386719 264.329102,5.49511719 266.262695,5.49511719 C268.196289,5.49511719 269.338867,7.46386719 269.338867,10.6455078 L269.338867,10.6630859 C269.338867,13.8447266 268.196289,15.8310547 266.262695,15.8310547 Z M277.345703,17.2109375 C279.938477,17.2109375 281.836914,15.4003906 281.836914,12.9042969 L281.836914,12.8867188 C281.836914,10.4785156 280.043945,8.69433594 277.626953,8.69433594 C275.904297,8.69433594 274.603516,9.60839844 274.09375,10.7333984 L274.058594,10.7333984 C274.058594,10.6367188 274.058594,10.5488281 274.067383,10.4609375 C274.137695,7.79785156 275.069336,5.50390625 277.433594,5.50390625 C278.734375,5.50390625 279.639648,6.15429688 280.017578,7.20019531 L280.052734,7.296875 L281.661133,7.296875 L281.634766,7.18261719 C281.212891,5.33691406 279.604492,4.10644531 277.451172,4.10644531 C274.348633,4.10644531 272.529297,6.60253906 272.529297,10.8740234 L272.529297,10.8916016 C272.529297,15.59375 275.007812,17.2109375 277.345703,17.2109375 Z M277.328125,15.8046875 C275.702148,15.8046875 274.436523,14.5126953 274.436523,12.8867188 L274.436523,12.8779297 C274.436523,11.2607422 275.693359,10.0830078 277.354492,10.0830078 C279.024414,10.0830078 280.228516,11.2695312 280.228516,12.921875 L280.228516,12.9394531 C280.228516,14.5390625 278.945312,15.8046875 277.328125,15.8046875 Z" id="306"></path>
        </g>
        <g id="Group-3-Copy-3" transform="translate(59.000000, 4.000000)" fill="#000000" fill-rule="nonzero">
            <path d="M9.28613281,17 L9.28613281,14.3632812 L11.0791016,14.3632812 L11.0791016,12.9746094 L9.28613281,12.9746094 L9.28613281,4.31738281 L6.94824219,4.31738281 L1.38476562,12.9306641 L1.38476562,14.3632812 L7.75683594,14.3632812 L7.75683594,17 L9.28613281,17 Z M7.75683594,12.9746094 L2.94921875,12.9746094 L2.94921875,12.9394531 L7.70410156,5.67089844 L7.75683594,5.67089844 L7.75683594,12.9746094 Z M17.0292969,17.2109375 C19.9472656,17.2109375 21.6962891,14.6884766 21.6962891,10.6630859 L21.6962891,10.6455078 C21.6962891,6.62011719 19.9472656,4.10644531 17.0292969,4.10644531 C14.1113281,4.10644531 12.3798828,6.62011719 12.3798828,10.6455078 L12.3798828,10.6630859 C12.3798828,14.6884766 14.1113281,17.2109375 17.0292969,17.2109375 Z M17.0292969,15.8310547 C15.0957031,15.8310547 13.9707031,13.8447266 13.9707031,10.6630859 L13.9707031,10.6455078 C13.9707031,7.46386719 15.0957031,5.49511719 17.0292969,5.49511719 C18.9628906,5.49511719 20.1054688,7.46386719 20.1054688,10.6455078 L20.1054688,10.6630859 C20.1054688,13.8447266 18.9628906,15.8310547 17.0292969,15.8310547 Z M28.1123047,17 L28.1123047,4.31738281 L26.5654297,4.31738281 L23.1904297,6.74316406 L23.1904297,8.33398438 L26.5478516,5.99609375 L26.5830078,5.99609375 L26.5830078,17 L28.1123047,17 Z" id="401"></path>
            <path d="M59.1831055,17 L59.1831055,14.3632812 L60.9760742,14.3632812 L60.9760742,12.9746094 L59.1831055,12.9746094 L59.1831055,4.31738281 L56.8452148,4.31738281 L51.2817383,12.9306641 L51.2817383,14.3632812 L57.6538086,14.3632812 L57.6538086,17 L59.1831055,17 Z M57.6538086,12.9746094 L52.8461914,12.9746094 L52.8461914,12.9394531 L57.6010742,5.67089844 L57.6538086,5.67089844 L57.6538086,12.9746094 Z M66.9262695,17.2109375 C69.8442383,17.2109375 71.5932617,14.6884766 71.5932617,10.6630859 L71.5932617,10.6455078 C71.5932617,6.62011719 69.8442383,4.10644531 66.9262695,4.10644531 C64.0083008,4.10644531 62.2768555,6.62011719 62.2768555,10.6455078 L62.2768555,10.6630859 C62.2768555,14.6884766 64.0083008,17.2109375 66.9262695,17.2109375 Z M66.9262695,15.8310547 C64.9926758,15.8310547 63.8676758,13.8447266 63.8676758,10.6630859 L63.8676758,10.6455078 C63.8676758,7.46386719 64.9926758,5.49511719 66.9262695,5.49511719 C68.8598633,5.49511719 70.0024414,7.46386719 70.0024414,10.6455078 L70.0024414,10.6630859 C70.0024414,13.8447266 68.8598633,15.8310547 66.9262695,15.8310547 Z M81.612793,17 L81.612793,15.59375 L75.4165039,15.59375 L75.4165039,15.5585938 L78.4311523,12.4648438 C80.7602539,10.0830078 81.4018555,9.03710938 81.4018555,7.6484375 L81.4018555,7.63085938 C81.4018555,5.64453125 79.7231445,4.10644531 77.4291992,4.10644531 C75.0649414,4.10644531 73.1665039,5.73242188 73.1665039,7.9296875 L73.1665039,7.98242188 L74.6958008,7.98242188 L74.6958008,7.93847656 C74.6958008,6.57617188 75.8735352,5.48632812 77.4555664,5.48632812 C78.8354492,5.48632812 79.8110352,6.41796875 79.8198242,7.70996094 L79.8198242,7.72753906 C79.8198242,8.78222656 79.4243164,9.46777344 77.7104492,11.2519531 L73.2456055,15.9101562 L73.2456055,17 L81.612793,17 Z" id="402"></path>
            <path d="M108.362305,17 L108.362305,14.3632812 L110.155273,14.3632812 L110.155273,12.9746094 L108.362305,12.9746094 L108.362305,4.31738281 L106.024414,4.31738281 L100.460938,12.9306641 L100.460938,14.3632812 L106.833008,14.3632812 L106.833008,17 L108.362305,17 Z M106.833008,12.9746094 L102.025391,12.9746094 L102.025391,12.9394531 L106.780273,5.67089844 L106.833008,5.67089844 L106.833008,12.9746094 Z M116.105469,17.2109375 C119.023438,17.2109375 120.772461,14.6884766 120.772461,10.6630859 L120.772461,10.6455078 C120.772461,6.62011719 119.023438,4.10644531 116.105469,4.10644531 C113.1875,4.10644531 111.456055,6.62011719 111.456055,10.6455078 L111.456055,10.6630859 C111.456055,14.6884766 113.1875,17.2109375 116.105469,17.2109375 Z M116.105469,15.8310547 C114.171875,15.8310547 113.046875,13.8447266 113.046875,10.6630859 L113.046875,10.6455078 C113.046875,7.46386719 114.171875,5.49511719 116.105469,5.49511719 C118.039062,5.49511719 119.181641,7.46386719 119.181641,10.6455078 L119.181641,10.6630859 C119.181641,13.8447266 118.039062,15.8310547 116.105469,15.8310547 Z M126.87207,17.2109375 C129.412109,17.2109375 131.275391,15.6464844 131.275391,13.5283203 L131.275391,13.5107422 C131.275391,11.7089844 130.018555,10.5576172 128.172852,10.3994141 L128.172852,10.3642578 C129.754883,10.0302734 130.862305,8.95800781 130.862305,7.39355469 L130.862305,7.37597656 C130.862305,5.45117188 129.271484,4.10644531 126.854492,4.10644531 C124.481445,4.10644531 122.84668,5.48632812 122.644531,7.55175781 L122.635742,7.63964844 L124.15625,7.63964844 L124.165039,7.55175781 C124.296875,6.26855469 125.360352,5.47753906 126.854492,5.47753906 C128.401367,5.47753906 129.271484,6.2421875 129.271484,7.56933594 L129.271484,7.58691406 C129.271484,8.85253906 128.216797,9.78417969 126.705078,9.78417969 L125.18457,9.78417969 L125.18457,11.1201172 L126.775391,11.1201172 C128.550781,11.1201172 129.666992,11.9902344 129.666992,13.5458984 L129.666992,13.5634766 C129.666992,14.9082031 128.533203,15.8398438 126.87207,15.8398438 C125.18457,15.8398438 124.041992,14.9785156 123.910156,13.7304688 L123.901367,13.6425781 L122.380859,13.6425781 L122.389648,13.7480469 C122.556641,15.7519531 124.25293,17.2109375 126.87207,17.2109375 Z" id="403"></path>
            <path d="M208.423828,17 L208.423828,14.3632812 L210.216797,14.3632812 L210.216797,12.9746094 L208.423828,12.9746094 L208.423828,4.31738281 L206.085938,4.31738281 L200.522461,12.9306641 L200.522461,14.3632812 L206.894531,14.3632812 L206.894531,17 L208.423828,17 Z M206.894531,12.9746094 L202.086914,12.9746094 L202.086914,12.9394531 L206.841797,5.67089844 L206.894531,5.67089844 L206.894531,12.9746094 Z M216.166992,17.2109375 C219.084961,17.2109375 220.833984,14.6884766 220.833984,10.6630859 L220.833984,10.6455078 C220.833984,6.62011719 219.084961,4.10644531 216.166992,4.10644531 C213.249023,4.10644531 211.517578,6.62011719 211.517578,10.6455078 L211.517578,10.6630859 C211.517578,14.6884766 213.249023,17.2109375 216.166992,17.2109375 Z M216.166992,15.8310547 C214.233398,15.8310547 213.108398,13.8447266 213.108398,10.6630859 L213.108398,10.6455078 C213.108398,7.46386719 214.233398,5.49511719 216.166992,5.49511719 C218.100586,5.49511719 219.243164,7.46386719 219.243164,10.6455078 L219.243164,10.6630859 C219.243164,13.8447266 218.100586,15.8310547 216.166992,15.8310547 Z M227.021484,17.2109375 C229.658203,17.2109375 231.530273,15.4355469 231.539062,12.8955078 L231.539062,12.8779297 C231.539062,10.4433594 229.78125,8.67675781 227.34668,8.67675781 C226.116211,8.67675781 225.061523,9.13378906 224.463867,9.98632812 L224.428711,9.98632812 L224.859375,5.72363281 L230.818359,5.72363281 L230.818359,4.31738281 L223.558594,4.31738281 L222.908203,11.5507812 L224.305664,11.5507812 C224.472656,11.2607422 224.674805,11.0146484 224.90332,10.8037109 C225.46582,10.2939453 226.204102,10.0390625 227.06543,10.0390625 C228.744141,10.0390625 229.948242,11.234375 229.957031,12.9042969 L229.957031,12.921875 C229.957031,14.6269531 228.761719,15.8222656 227.039062,15.8222656 C225.518555,15.8222656 224.393555,14.8642578 224.235352,13.6074219 L224.226562,13.5371094 L222.670898,13.5371094 L222.679688,13.6337891 C222.864258,15.6992188 224.595703,17.2109375 227.021484,17.2109375 Z" id="405"></path>
            <path d="M158.748047,17 L158.748047,14.3632812 L160.541016,14.3632812 L160.541016,12.9746094 L158.748047,12.9746094 L158.748047,4.31738281 L156.410156,4.31738281 L150.84668,12.9306641 L150.84668,14.3632812 L157.21875,14.3632812 L157.21875,17 L158.748047,17 Z M157.21875,12.9746094 L152.411133,12.9746094 L152.411133,12.9394531 L157.166016,5.67089844 L157.21875,5.67089844 L157.21875,12.9746094 Z M166.491211,17.2109375 C169.40918,17.2109375 171.158203,14.6884766 171.158203,10.6630859 L171.158203,10.6455078 C171.158203,6.62011719 169.40918,4.10644531 166.491211,4.10644531 C163.573242,4.10644531 161.841797,6.62011719 161.841797,10.6455078 L161.841797,10.6630859 C161.841797,14.6884766 163.573242,17.2109375 166.491211,17.2109375 Z M166.491211,15.8310547 C164.557617,15.8310547 163.432617,13.8447266 163.432617,10.6630859 L163.432617,10.6455078 C163.432617,7.46386719 164.557617,5.49511719 166.491211,5.49511719 C168.424805,5.49511719 169.567383,7.46386719 169.567383,10.6455078 L169.567383,10.6630859 C169.567383,13.8447266 168.424805,15.8310547 166.491211,15.8310547 Z M180.544922,17 L180.544922,14.3632812 L182.337891,14.3632812 L182.337891,12.9746094 L180.544922,12.9746094 L180.544922,4.31738281 L178.207031,4.31738281 L172.643555,12.9306641 L172.643555,14.3632812 L179.015625,14.3632812 L179.015625,17 L180.544922,17 Z M179.015625,12.9746094 L174.208008,12.9746094 L174.208008,12.9394531 L178.962891,5.67089844 L179.015625,5.67089844 L179.015625,12.9746094 Z" id="404"></path>
            <path d="M258.633789,17 L258.633789,14.3632812 L260.426758,14.3632812 L260.426758,12.9746094 L258.633789,12.9746094 L258.633789,4.31738281 L256.295898,4.31738281 L250.732422,12.9306641 L250.732422,14.3632812 L257.104492,14.3632812 L257.104492,17 L258.633789,17 Z M257.104492,12.9746094 L252.296875,12.9746094 L252.296875,12.9394531 L257.051758,5.67089844 L257.104492,5.67089844 L257.104492,12.9746094 Z M266.376953,17.2109375 C269.294922,17.2109375 271.043945,14.6884766 271.043945,10.6630859 L271.043945,10.6455078 C271.043945,6.62011719 269.294922,4.10644531 266.376953,4.10644531 C263.458984,4.10644531 261.727539,6.62011719 261.727539,10.6455078 L261.727539,10.6630859 C261.727539,14.6884766 263.458984,17.2109375 266.376953,17.2109375 Z M266.376953,15.8310547 C264.443359,15.8310547 263.318359,13.8447266 263.318359,10.6630859 L263.318359,10.6455078 C263.318359,7.46386719 264.443359,5.49511719 266.376953,5.49511719 C268.310547,5.49511719 269.453125,7.46386719 269.453125,10.6455078 L269.453125,10.6630859 C269.453125,13.8447266 268.310547,15.8310547 266.376953,15.8310547 Z M277.459961,17.2109375 C280.052734,17.2109375 281.951172,15.4003906 281.951172,12.9042969 L281.951172,12.8867188 C281.951172,10.4785156 280.158203,8.69433594 277.741211,8.69433594 C276.018555,8.69433594 274.717773,9.60839844 274.208008,10.7333984 L274.172852,10.7333984 C274.172852,10.6367188 274.172852,10.5488281 274.181641,10.4609375 C274.251953,7.79785156 275.183594,5.50390625 277.547852,5.50390625 C278.848633,5.50390625 279.753906,6.15429688 280.131836,7.20019531 L280.166992,7.296875 L281.775391,7.296875 L281.749023,7.18261719 C281.327148,5.33691406 279.71875,4.10644531 277.56543,4.10644531 C274.462891,4.10644531 272.643555,6.60253906 272.643555,10.8740234 L272.643555,10.8916016 C272.643555,15.59375 275.12207,17.2109375 277.459961,17.2109375 Z M277.442383,15.8046875 C275.816406,15.8046875 274.550781,14.5126953 274.550781,12.8867188 L274.550781,12.8779297 C274.550781,11.2607422 275.807617,10.0830078 277.46875,10.0830078 C279.138672,10.0830078 280.342773,11.2695312 280.342773,12.921875 L280.342773,12.9394531 C280.342773,14.5390625 279.05957,15.8046875 277.442383,15.8046875 Z" id="406"></path>
        </g>
        <rect id="Rectangle-Copy-46" fill="#A76900" x="196" y="234" width="4" height="12"></rect>
        <rect id="Rectangle-Copy-47" fill="#A76900" x="250" y="264" width="4" height="12"></rect>
        <rect id="Rectangle-Copy-48" fill="#A76900" x="346" y="224" width="4" height="12"></rect>
        <g id="Group-6-Copy-3" transform="translate(89.500000, 30.000000)" stroke="#979797" stroke-linecap="square" stroke-width="2">
            <line x1="50.5" y1="-7.10542736e-14" x2="50.5" y2="20" id="Line-2-Copy"></line>
            <line x1="0.5" y1="-7.10542736e-14" x2="0.5" y2="20" id="Line-2-Copy-2"></line>
            <line x1="100.5" y1="-7.10542736e-14" x2="100.5" y2="20" id="Line-2-Copy-4"></line>
            <line x1="150.5" y1="-7.10542736e-14" x2="150.5" y2="20" id="Line-2-Copy-5"></line>
            <line x1="200.5" y1="-7.10542736e-14" x2="200.5" y2="20" id="Line-2-Copy-6"></line>
            <line x1="250.5" y1="-7.10542736e-14" x2="250.5" y2="20" id="Line-2-Copy-7"></line>
        </g>
        <g id="Group-7" transform="translate(84.000000, 370.000000)" fill="#A76900">
            <rect id="Rectangle-Copy-10" transform="translate(6.000000, 2.000000) scale(1, -1) translate(-6.000000, -2.000000) " x="0" y="0" width="12" height="4"></rect>
            <rect id="Rectangle-Copy-12" transform="translate(56.000000, 2.000000) scale(1, -1) translate(-56.000000, -2.000000) " x="50" y="0" width="12" height="4"></rect>
            <rect id="Rectangle-Copy-13" transform="translate(106.000000, 2.000000) scale(1, -1) translate(-106.000000, -2.000000) " x="100" y="0" width="12" height="4"></rect>
            <rect id="Rectangle-Copy-16" transform="translate(206.000000, 2.000000) scale(1, -1) translate(-206.000000, -2.000000) " x="200" y="0" width="12" height="4"></rect>
            <rect id="Rectangle-Copy-17" transform="translate(256.000000, 2.000000) scale(1, -1) translate(-256.000000, -2.000000) " x="250" y="0" width="12" height="4"></rect>
        </g>
        <g id="Group-7-Copy" transform="translate(84.000000, 166.000000)" fill="#A76900">
            <rect id="Rectangle-Copy-10" transform="translate(6.000000, 2.000000) scale(1, -1) translate(-6.000000, -2.000000) " x="0" y="0" width="12" height="4"></rect>
            <rect id="Rectangle-Copy-12" transform="translate(56.000000, 2.000000) scale(1, -1) translate(-56.000000, -2.000000) " x="50" y="0" width="12" height="4"></rect>
            <rect id="Rectangle-Copy-13" transform="translate(106.000000, 2.000000) scale(1, -1) translate(-106.000000, -2.000000) " x="100" y="0" width="12" height="4"></rect>
            <rect id="Rectangle-Copy-16" transform="translate(206.000000, 2.000000) scale(1, -1) translate(-206.000000, -2.000000) " x="200" y="0" width="12" height="4"></rect>
            <rect id="Rectangle-Copy-17" transform="translate(256.000000, 2.000000) scale(1, -1) translate(-256.000000, -2.000000) " x="250" y="0" width="12" height="4"></rect>
        </g>
        <g id="Group-7-Copy-2" transform="translate(84.000000, 96.000000)" fill="#A76900">
            <rect id="Rectangle-Copy-10" transform="translate(6.000000, 2.000000) scale(1, -1) translate(-6.000000, -2.000000) " x="0" y="0" width="12" height="4"></rect>
            <rect id="Rectangle-Copy-12" transform="translate(56.000000, 2.000000) scale(1, -1) translate(-56.000000, -2.000000) " x="50" y="0" width="12" height="4"></rect>
            <rect id="Rectangle-Copy-13" transform="translate(106.000000, 2.000000) scale(1, -1) translate(-106.000000, -2.000000) " x="100" y="0" width="12" height="4"></rect>
            <rect id="Rectangle-Copy-15" transform="translate(156.000000, 2.000000) scale(1, -1) translate(-156.000000, -2.000000) " x="150" y="0" width="12" height="4"></rect>
            <rect id="Rectangle-Copy-16" transform="translate(206.000000, 2.000000) scale(1, -1) translate(-206.000000, -2.000000) " x="200" y="0" width="12" height="4"></rect>
            <rect id="Rectangle-Copy-17" transform="translate(256.000000, 2.000000) scale(1, -1) translate(-256.000000, -2.000000) " x="250" y="0" width="12" height="4"></rect>
        </g>
        <g id="Group-7-Copy-3" transform="translate(84.000000, 26.000000)" fill="#A76900">
            <rect id="Rectangle-Copy-10" transform="translate(6.000000, 2.000000) scale(1, -1) translate(-6.000000, -2.000000) " x="0" y="0" width="12" height="4"></rect>
            <rect id="Rectangle-Copy-12" transform="translate(56.000000, 2.000000) scale(1, -1) translate(-56.000000, -2.000000) " x="50" y="0" width="12" height="4"></rect>
            <rect id="Rectangle-Copy-13" transform="translate(106.000000, 2.000000) scale(1, -1) translate(-106.000000, -2.000000) " x="100" y="0" width="12" height="4"></rect>
            <rect id="Rectangle-Copy-15" transform="translate(156.000000, 2.000000) scale(1, -1) translate(-156.000000, -2.000000) " x="150" y="0" width="12" height="4"></rect>
            <rect id="Rectangle-Copy-16" transform="translate(206.000000, 2.000000) scale(1, -1) translate(-206.000000, -2.000000) " x="200" y="0" width="12" height="4"></rect>
            <rect id="Rectangle-Copy-17" transform="translate(256.000000, 2.000000) scale(1, -1) translate(-256.000000, -2.000000) " x="250" y="0" width="12" height="4"></rect>
        </g>
        <rect id="Rectangle-Copy-46" fill="#A76900" x="196" y="294" width="4" height="12"></rect>
        <g id="Group-11" transform="translate(64.000000, 190.000000)">
            <line x1="6" y1="-7.10542736e-14" x2="6" y2="20" id="Line-2-Copy-2" stroke="#979797" stroke-width="2" stroke-linecap="square"></line>
            <rect id="Rectangle-Copy-10" fill="#A76900" transform="translate(6.000000, 22.000000) scale(1, -1) translate(-6.000000, -22.000000) " x="0" y="20" width="12" height="4"></rect>
        </g>
        <g filter="url(#filter-1)" id="Group-10">
            <g transform="translate(66.000000, 46.000000)">
                <g id="Group-4" transform="translate(155.000000, 190.000000)" fill="#54A6FF">
                    <circle id="Oval-Copy-18" cx="4" cy="4" r="4"></circle>
                    <circle id="Oval-Copy-18" cx="4" cy="34" r="4"></circle>
                    <circle id="Oval-Copy-18" cx="4" cy="64" r="4"></circle>
                </g>
                <circle id="Oval-Copy-19" fill="#54A6FF" cx="304" cy="184" r="4"></circle>
                <g id="Group-5" transform="translate(20.000000, 300.000000)" fill="#54A6FF">
                    <circle id="Oval-Copy-11" cx="4" cy="4" r="4"></circle>
                    <circle id="Oval-Copy-12" cx="54" cy="4" r="4"></circle>
                    <circle id="Oval-Copy-13" cx="104" cy="4" r="4"></circle>
                    <circle id="Oval-Copy-15" cx="204" cy="4" r="4"></circle>
                    <circle id="Oval-Copy-16" cx="254" cy="4" r="4"></circle>
                </g>
                <g id="Group-5-Copy-3" transform="translate(20.000000, 0.000000)" fill="#54A6FF">
                    <circle id="Oval-Copy-11" cx="4" cy="4" r="4"></circle>
                    <circle id="Oval-Copy-12" cx="54" cy="4" r="4"></circle>
                    <circle id="Oval-Copy-13" cx="104" cy="4" r="4"></circle>
                    <circle id="Oval-Copy-14" cx="154" cy="4" r="4"></circle>
                    <circle id="Oval-Copy-15" cx="204" cy="4" r="4"></circle>
                    <circle id="Oval-Copy-16" cx="254" cy="4" r="4"></circle>
                </g>
                <g id="Group-5-Copy-4" transform="translate(20.000000, 70.000000)" fill="#54A6FF">
                    <circle id="Oval-Copy-11" cx="4" cy="4" r="4"></circle>
                    <circle id="Oval-Copy-12" cx="54" cy="4" r="4"></circle>
                    <circle id="Oval-Copy-13" cx="104" cy="4" r="4"></circle>
                    <circle id="Oval-Copy-14" cx="154" cy="4" r="4"></circle>
                    <circle id="Oval-Copy-15" cx="204" cy="4" r="4"></circle>
                    <circle id="Oval-Copy-16" cx="254" cy="4" r="4"></circle>
                </g>
                <g id="Group-9" transform="translate(0.000000, 140.000000)" fill="#54A6FF">
                    <circle id="Oval-Copy-11" cx="24" cy="4" r="4"></circle>
                    <circle id="Oval-Copy-17" cx="4" cy="4" r="4"></circle>
                    <circle id="Oval-Copy-12" cx="74" cy="4" r="4"></circle>
                    <circle id="Oval-Copy-13" cx="124" cy="4" r="4"></circle>
                    <circle id="Oval-Copy-15" cx="224" cy="4" r="4"></circle>
                    <circle id="Oval-Copy-16" cx="274" cy="4" r="4"></circle>
                </g>
            </g>
        </g>
        <g id="Group-2" transform="translate(20.000000, 40.000000)">
            <circle id="Oval" fill="#D8D8D8" cx="10" cy="80" r="10"></circle>
            <circle id="Oval-Copy-4" fill="#D8D8D8" cx="205" cy="80" r="10"></circle>
            <circle id="Oval-Copy" fill="#D8D8D8" cx="10" cy="10" r="10"></circle>
            <circle id="Oval-Copy-8" fill="#D8D8D8" cx="350" cy="10" r="10"></circle>
            <circle id="Oval-Copy-2" fill="#D8D8D8" cx="10" cy="150" r="10"></circle>
            <circle id="Oval-Copy-5" fill="#D8D8D8" cx="10" cy="310" r="10"></circle>
            <circle id="Oval-Copy-6" fill="#FF0000" cx="205" cy="310" r="10"></circle>
            <circle id="Oval-Copy-7" fill="#D8D8D8" cx="350" cy="310" r="10"></circle>
            <circle id="Oval-Copy-3" fill="#D8D8D8" cx="205" cy="150" r="10"></circle>
            <circle id="Oval-Copy-9" fill="#D8D8D8" cx="350" cy="150" r="10"></circle>
            <circle id="Oval-Copy-10" fill="#D8D8D8" cx="350" cy="80" r="10"></circle>
        </g>
        <path d="M218.754883,374 L218.754883,371.368164 L221.210938,366.954102 L219.614258,366.954102 L218.037109,369.961914 L218.00293,369.961914 L216.420898,366.954102 L214.829102,366.954102 L217.280273,371.368164 L217.280273,374 L218.754883,374 Z M224.472656,374.12207 C226.567383,374.12207 227.871094,372.720703 227.871094,370.479492 L227.871094,370.469727 C227.871094,368.233398 226.5625,366.832031 224.472656,366.832031 C222.387695,366.832031 221.074219,368.228516 221.074219,370.469727 L221.074219,370.479492 C221.074219,372.720703 222.37793,374.12207 224.472656,374.12207 Z M224.472656,372.87207 C223.31543,372.87207 222.578125,371.954102 222.578125,370.479492 L222.578125,370.469727 C222.578125,368.995117 223.320312,368.082031 224.472656,368.082031 C225.629883,368.082031 226.367188,369 226.367188,370.469727 L226.367188,370.479492 C226.367188,371.939453 225.644531,372.87207 224.472656,372.87207 Z M231.772461,374.12207 C233.588867,374.12207 234.72168,373.072266 234.72168,371.509766 L234.72168,366.954102 L233.24707,366.954102 L233.24707,371.37793 C233.24707,372.291016 232.719727,372.87207 231.772461,372.87207 C230.825195,372.87207 230.292969,372.291016 230.292969,371.37793 L230.292969,366.954102 L228.818359,366.954102 L228.818359,371.509766 C228.818359,373.077148 229.96582,374.12207 231.772461,374.12207 Z M217.155762,386 L217.687988,384.291016 L220.178223,384.291016 L220.710449,386 L222.258301,386 L219.802246,378.954102 L218.068848,378.954102 L215.60791,386 L217.155762,386 Z M219.836426,383.1875 L218.029785,383.1875 L218.918457,380.321289 L218.947754,380.321289 L219.836426,383.1875 Z M224.455566,386 L224.455566,383.446289 L225.637207,383.446289 L226.950684,386 L228.620605,386 L227.13623,383.226562 C227.91748,382.918945 228.410645,382.147461 228.410645,381.219727 L228.410645,381.209961 C228.410645,379.793945 227.473145,378.954102 225.891113,378.954102 L222.980957,378.954102 L222.980957,386 L224.455566,386 Z M225.72998,382.328125 L224.455566,382.328125 L224.455566,380.106445 L225.710449,380.106445 C226.437988,380.106445 226.901855,380.536133 226.901855,381.209961 L226.901855,381.219727 C226.901855,381.913086 226.462402,382.328125 225.72998,382.328125 Z M234.050293,386 L234.050293,384.78418 L230.856934,384.78418 L230.856934,383.011719 L233.869629,383.011719 L233.869629,381.859375 L230.856934,381.859375 L230.856934,380.169922 L234.050293,380.169922 L234.050293,378.954102 L229.382324,378.954102 L229.382324,386 L234.050293,386 Z M214.47998,398 L214.47998,395.03125 L217.653809,395.03125 L217.653809,398 L219.128418,398 L219.128418,390.954102 L217.653809,390.954102 L217.653809,393.81543 L214.47998,393.81543 L214.47998,390.954102 L213.005371,390.954102 L213.005371,398 L214.47998,398 Z M224.968262,398 L224.968262,396.78418 L221.774902,396.78418 L221.774902,395.011719 L224.787598,395.011719 L224.787598,393.859375 L221.774902,393.859375 L221.774902,392.169922 L224.968262,392.169922 L224.968262,390.954102 L220.300293,390.954102 L220.300293,398 L224.968262,398 Z M227.507324,398 L227.507324,395.446289 L228.688965,395.446289 L230.002441,398 L231.672363,398 L230.187988,395.226562 C230.969238,394.918945 231.462402,394.147461 231.462402,393.219727 L231.462402,393.209961 C231.462402,391.793945 230.524902,390.954102 228.942871,390.954102 L226.032715,390.954102 L226.032715,398 L227.507324,398 Z M228.781738,394.328125 L227.507324,394.328125 L227.507324,392.106445 L228.762207,392.106445 C229.489746,392.106445 229.953613,392.536133 229.953613,393.209961 L229.953613,393.219727 C229.953613,393.913086 229.51416,394.328125 228.781738,394.328125 Z M237.102051,398 L237.102051,396.78418 L233.908691,396.78418 L233.908691,395.011719 L236.921387,395.011719 L236.921387,393.859375 L233.908691,393.859375 L233.908691,392.169922 L237.102051,392.169922 L237.102051,390.954102 L232.434082,390.954102 L232.434082,398 L237.102051,398 Z" id="YOUAREHERE" fill="#FF0000" fill-rule="nonzero"></path>
        <path d="M94.7363281,274 L94.7363281,263.941406 L101.259766,263.941406 C106.552734,263.941406 110.302734,260.210938 110.302734,254.859375 L110.302734,254.820312 C110.302734,249.46875 106.552734,245.816406 101.259766,245.816406 L91.2207031,245.816406 L91.2207031,274 L94.7363281,274 Z M100.361328,260.816406 L94.7363281,260.816406 L94.7363281,248.941406 L100.361328,248.941406 C104.384766,248.941406 106.708984,251.148438 106.708984,254.859375 L106.708984,254.898438 C106.708984,258.609375 104.384766,260.816406 100.361328,260.816406 Z M113.623047,274 L116.474609,265.933594 L127.822266,265.933594 L130.673828,274 L134.365234,274 L123.896484,245.816406 L120.419922,245.816406 L109.931641,274 L113.623047,274 Z M126.767578,262.945312 L117.548828,262.945312 L122.119141,250.035156 L122.197266,250.035156 L126.767578,262.945312 Z M148.583984,274.46875 C154.482422,274.46875 158.994141,270.972656 160.068359,265.582031 L160.107422,265.386719 L156.552734,265.386719 L156.494141,265.5625 C155.263672,269.273438 152.529297,271.226562 148.583984,271.226562 C142.978516,271.226562 139.326172,266.753906 139.326172,259.898438 L139.326172,259.878906 C139.326172,253.023438 142.958984,248.589844 148.583984,248.589844 C152.548828,248.589844 155.322266,250.582031 156.416016,254 L156.552734,254.429688 L160.107422,254.429688 L160.068359,254.234375 C158.994141,248.902344 154.443359,245.347656 148.583984,245.347656 C140.732422,245.347656 135.712891,251.011719 135.712891,259.878906 L135.712891,259.898438 C135.712891,268.765625 140.751953,274.46875 148.583984,274.46875 Z" id="PAC" fill="#000000" fill-rule="nonzero"></path>
        <path d="M277.529297,274.46875 C283.427734,274.46875 287.939453,270.972656 289.013672,265.582031 L289.052734,265.386719 L285.498047,265.386719 L285.439453,265.5625 C284.208984,269.273438 281.474609,271.226562 277.529297,271.226562 C271.923828,271.226562 268.271484,266.753906 268.271484,259.898438 L268.271484,259.878906 C268.271484,253.023438 271.904297,248.589844 277.529297,248.589844 C281.494141,248.589844 284.267578,250.582031 285.361328,254 L285.498047,254.429688 L289.052734,254.429688 L289.013672,254.234375 C287.939453,248.902344 283.388672,245.347656 277.529297,245.347656 C269.677734,245.347656 264.658203,251.011719 264.658203,259.878906 L264.658203,259.898438 C264.658203,268.765625 269.697266,274.46875 277.529297,274.46875 Z M294.638672,274 L297.490234,265.933594 L308.837891,265.933594 L311.689453,274 L315.380859,274 L304.912109,245.816406 L301.435547,245.816406 L290.947266,274 L294.638672,274 Z M307.783203,262.945312 L298.564453,262.945312 L303.134766,250.035156 L303.212891,250.035156 L307.783203,262.945312 Z M322.119141,274 L322.119141,261.792969 L334.599609,261.792969 L334.599609,258.667969 L322.119141,258.667969 L322.119141,248.980469 L335.712891,248.980469 L335.712891,245.816406 L318.603516,245.816406 L318.603516,274 L322.119141,274 Z" id="CAF" fill="#000000" fill-rule="nonzero"></path>
        <path d="M102.398926,291.175781 C102.697754,291.175781 103.022949,291.140625 103.216309,291.114258 L103.216309,289.875 C103.084473,289.883789 102.908691,289.910156 102.724121,289.910156 C101.906738,289.910156 101.476074,289.637695 101.476074,288.662109 L101.476074,283.125 L103.216309,283.125 L103.216309,281.859375 L101.476074,281.859375 L101.476074,279.389648 L99.894043,279.389648 L99.894043,281.859375 L98.5581055,281.859375 L98.5581055,283.125 L99.894043,283.125 L99.894043,288.670898 C99.894043,290.419922 100.720215,291.175781 102.398926,291.175781 Z M106.459473,291 L106.459473,285.665039 C106.459473,284.109375 107.399902,283.037109 108.814941,283.037109 C110.23877,283.037109 111.08252,284.012695 111.08252,285.665039 L111.08252,291 L112.611816,291 L112.611816,285.401367 C112.611816,283.186523 111.284668,281.683594 109.342285,281.683594 C107.97998,281.683594 106.986816,282.290039 106.494629,283.318359 L106.459473,283.318359 L106.459473,278.317383 L104.930176,278.317383 L104.930176,291 L106.459473,291 Z M118.315918,291.175781 C120.311035,291.175781 121.805176,289.980469 122.104004,288.46875 L122.121582,288.380859 L120.618652,288.380859 L120.592285,288.459961 C120.328613,289.242188 119.51123,289.822266 118.351074,289.822266 C116.725098,289.822266 115.687988,288.723633 115.652832,286.842773 L122.23584,286.842773 L122.23584,286.280273 C122.23584,283.538086 120.715332,281.683594 118.219238,281.683594 C115.723145,281.683594 114.105957,283.625977 114.105957,286.456055 L114.105957,286.464844 C114.105957,289.338867 115.687988,291.175781 118.315918,291.175781 Z M120.680176,285.647461 L115.679199,285.647461 C115.846191,283.942383 116.883301,283.037109 118.210449,283.037109 C119.546387,283.037109 120.530762,283.87207 120.680176,285.647461 Z M126.445801,291.175781 C127.66748,291.175781 128.766113,290.516602 129.302246,289.514648 L129.337402,289.514648 L129.337402,291 L130.866699,291 L130.866699,284.680664 C130.866699,282.852539 129.513184,281.683594 127.351074,281.683594 C125.197754,281.683594 123.888184,282.896484 123.756348,284.399414 L123.747559,284.496094 L125.224121,284.496094 L125.241699,284.416992 C125.41748,283.599609 126.155762,283.037109 127.333496,283.037109 C128.60791,283.037109 129.337402,283.713867 129.337402,284.830078 L129.337402,285.594727 L126.718262,285.744141 C124.617676,285.867188 123.404785,286.842773 123.404785,288.398438 L123.404785,288.416016 C123.404785,290.077148 124.626465,291.175781 126.445801,291.175781 Z M126.788574,289.848633 C125.689941,289.848633 124.969238,289.294922 124.969238,288.416016 L124.969238,288.398438 C124.969238,287.545898 125.672363,287.000977 126.894043,286.930664 L129.337402,286.78125 L129.337402,287.52832 C129.337402,288.855469 128.22998,289.848633 126.788574,289.848633 Z M135.779785,291.175781 C136.078613,291.175781 136.403809,291.140625 136.597168,291.114258 L136.597168,289.875 C136.465332,289.883789 136.289551,289.910156 136.10498,289.910156 C135.287598,289.910156 134.856934,289.637695 134.856934,288.662109 L134.856934,283.125 L136.597168,283.125 L136.597168,281.859375 L134.856934,281.859375 L134.856934,279.389648 L133.274902,279.389648 L133.274902,281.859375 L131.938965,281.859375 L131.938965,283.125 L133.274902,283.125 L133.274902,288.670898 C133.274902,290.419922 134.101074,291.175781 135.779785,291.175781 Z M139.76123,291 L139.76123,285.357422 C139.76123,283.96875 140.534668,283.142578 141.721191,283.142578 C142.090332,283.142578 142.415527,283.186523 142.538574,283.230469 L142.538574,281.745117 C142.415527,281.727539 142.187012,281.683594 141.92334,281.683594 C140.89502,281.683594 140.104004,282.351562 139.796387,283.40625 L139.76123,283.40625 L139.76123,281.859375 L138.231934,281.859375 L138.231934,291 L139.76123,291 Z M147.100098,291.175781 C149.095215,291.175781 150.589355,289.980469 150.888184,288.46875 L150.905762,288.380859 L149.402832,288.380859 L149.376465,288.459961 C149.112793,289.242188 148.29541,289.822266 147.135254,289.822266 C145.509277,289.822266 144.472168,288.723633 144.437012,286.842773 L151.02002,286.842773 L151.02002,286.280273 C151.02002,283.538086 149.499512,281.683594 147.003418,281.683594 C144.507324,281.683594 142.890137,283.625977 142.890137,286.456055 L142.890137,286.464844 C142.890137,289.338867 144.472168,291.175781 147.100098,291.175781 Z M149.464355,285.647461 L144.463379,285.647461 C144.630371,283.942383 145.66748,283.037109 146.994629,283.037109 C148.330566,283.037109 149.314941,283.87207 149.464355,285.647461 Z" id="theatre" fill="#585858" fill-rule="nonzero"></path>
        <path d="M273.016602,291.175781 C275.082031,291.175781 276.584961,289.831055 276.831055,288.09082 L276.839844,288.029297 L275.336914,288.029297 L275.319336,288.099609 C275.064453,289.119141 274.264648,289.822266 273.016602,289.822266 C271.43457,289.822266 270.344727,288.56543 270.344727,286.438477 L270.344727,286.429688 C270.344727,284.355469 271.408203,283.037109 272.999023,283.037109 C274.34375,283.037109 275.082031,283.845703 275.310547,284.759766 L275.328125,284.830078 L276.822266,284.830078 L276.813477,284.759766 C276.620117,283.195312 275.275391,281.683594 272.999023,281.683594 C270.458984,281.683594 268.780273,283.529297 268.780273,286.412109 L268.780273,286.420898 C268.780273,289.330078 270.423828,291.175781 273.016602,291.175781 Z M280.917969,291.175781 C282.139648,291.175781 283.238281,290.516602 283.774414,289.514648 L283.80957,289.514648 L283.80957,291 L285.338867,291 L285.338867,284.680664 C285.338867,282.852539 283.985352,281.683594 281.823242,281.683594 C279.669922,281.683594 278.360352,282.896484 278.228516,284.399414 L278.219727,284.496094 L279.696289,284.496094 L279.713867,284.416992 C279.889648,283.599609 280.62793,283.037109 281.805664,283.037109 C283.080078,283.037109 283.80957,283.713867 283.80957,284.830078 L283.80957,285.594727 L281.19043,285.744141 C279.089844,285.867188 277.876953,286.842773 277.876953,288.398438 L277.876953,288.416016 C277.876953,290.077148 279.098633,291.175781 280.917969,291.175781 Z M281.260742,289.848633 C280.162109,289.848633 279.441406,289.294922 279.441406,288.416016 L279.441406,288.398438 C279.441406,287.545898 280.144531,287.000977 281.366211,286.930664 L283.80957,286.78125 L283.80957,287.52832 C283.80957,288.855469 282.702148,289.848633 281.260742,289.848633 Z M289.302734,291 L289.302734,283.125 L291.166016,283.125 L291.166016,281.859375 L289.285156,281.859375 L289.285156,280.743164 C289.285156,279.837891 289.707031,279.407227 290.550781,279.407227 C290.788086,279.407227 291.025391,279.416016 291.209961,279.442383 L291.209961,278.203125 C290.981445,278.167969 290.621094,278.141602 290.27832,278.141602 C288.59082,278.141602 287.773438,278.976562 287.773438,280.734375 L287.773438,281.859375 L286.499023,281.859375 L286.499023,283.125 L287.773438,283.125 L287.773438,291 L289.302734,291 Z M295.630859,291.175781 C297.625977,291.175781 299.120117,289.980469 299.418945,288.46875 L299.436523,288.380859 L297.933594,288.380859 L297.907227,288.459961 C297.643555,289.242188 296.826172,289.822266 295.666016,289.822266 C294.040039,289.822266 293.00293,288.723633 292.967773,286.842773 L299.550781,286.842773 L299.550781,286.280273 C299.550781,283.538086 298.030273,281.683594 295.53418,281.683594 C293.038086,281.683594 291.420898,283.625977 291.420898,286.456055 L291.420898,286.464844 C291.420898,289.338867 293.00293,291.175781 295.630859,291.175781 Z M297.995117,285.647461 L292.994141,285.647461 C293.161133,283.942383 294.198242,283.037109 295.525391,283.037109 C296.861328,283.037109 297.845703,283.87207 297.995117,285.647461 Z M304.05957,291.175781 C304.358398,291.175781 304.683594,291.140625 304.876953,291.114258 L304.876953,289.875 C304.745117,289.883789 304.569336,289.910156 304.384766,289.910156 C303.567383,289.910156 303.136719,289.637695 303.136719,288.662109 L303.136719,283.125 L304.876953,283.125 L304.876953,281.859375 L303.136719,281.859375 L303.136719,279.389648 L301.554688,279.389648 L301.554688,281.859375 L300.21875,281.859375 L300.21875,283.125 L301.554688,283.125 L301.554688,288.670898 C301.554688,290.419922 302.380859,291.175781 304.05957,291.175781 Z M310.009766,291.175781 C312.004883,291.175781 313.499023,289.980469 313.797852,288.46875 L313.81543,288.380859 L312.3125,288.380859 L312.286133,288.459961 C312.022461,289.242188 311.205078,289.822266 310.044922,289.822266 C308.418945,289.822266 307.381836,288.723633 307.34668,286.842773 L313.929688,286.842773 L313.929688,286.280273 C313.929688,283.538086 312.40918,281.683594 309.913086,281.683594 C307.416992,281.683594 305.799805,283.625977 305.799805,286.456055 L305.799805,286.464844 C305.799805,289.338867 307.381836,291.175781 310.009766,291.175781 Z M312.374023,285.647461 L307.373047,285.647461 C307.540039,283.942383 308.577148,283.037109 309.904297,283.037109 C311.240234,283.037109 312.224609,283.87207 312.374023,285.647461 Z M316.99707,291 L316.99707,285.357422 C316.99707,283.96875 317.770508,283.142578 318.957031,283.142578 C319.326172,283.142578 319.651367,283.186523 319.774414,283.230469 L319.774414,281.745117 C319.651367,281.727539 319.422852,281.683594 319.15918,281.683594 C318.130859,281.683594 317.339844,282.351562 317.032227,283.40625 L316.99707,283.40625 L316.99707,281.859375 L315.467773,281.859375 L315.467773,291 L316.99707,291 Z M321.875,280.3125 C322.411133,280.3125 322.833008,279.881836 322.833008,279.354492 C322.833008,278.818359 322.411133,278.396484 321.875,278.396484 C321.347656,278.396484 320.916992,278.818359 320.916992,279.354492 C320.916992,279.881836 321.347656,280.3125 321.875,280.3125 Z M322.639648,291 L322.639648,281.859375 L321.110352,281.859375 L321.110352,291 L322.639648,291 Z M327.394531,291.175781 C328.616211,291.175781 329.714844,290.516602 330.250977,289.514648 L330.286133,289.514648 L330.286133,291 L331.81543,291 L331.81543,284.680664 C331.81543,282.852539 330.461914,281.683594 328.299805,281.683594 C326.146484,281.683594 324.836914,282.896484 324.705078,284.399414 L324.696289,284.496094 L326.172852,284.496094 L326.19043,284.416992 C326.366211,283.599609 327.104492,283.037109 328.282227,283.037109 C329.556641,283.037109 330.286133,283.713867 330.286133,284.830078 L330.286133,285.594727 L327.666992,285.744141 C325.566406,285.867188 324.353516,286.842773 324.353516,288.398438 L324.353516,288.416016 C324.353516,290.077148 325.575195,291.175781 327.394531,291.175781 Z M327.737305,289.848633 C326.638672,289.848633 325.917969,289.294922 325.917969,288.416016 L325.917969,288.398438 C325.917969,287.545898 326.621094,287.000977 327.842773,286.930664 L330.286133,286.78125 L330.286133,287.52832 C330.286133,288.855469 329.178711,289.848633 327.737305,289.848633 Z" id="cafeteria" fill="#585858" fill-rule="nonzero"></path>
    </g>
</svg>